<?xml version="1.0" ?><svg enable-background="new -196.882 53.321 463.562 460.502" id="Layer_1" version="1.1" viewBox="-196.882 53.321 463.562 460.502" xml:space="preserve" xmlns="http://www.w3.org/2000/svg" xmlns:xlink="http://www.w3.org/1999/xlink"><g id="Layer_1_1_"/><g><path d="M138.457,361.766c-4.123-4.947-8.888-8.952-14.563-12.241c-4.863-2.819-9.962-4.785-14.892-6.686l-0.836-0.321   c-2.17-0.838-4.368-1.64-6.572-2.443c-2.783-1.015-5.412-1.973-8.015-3.014c-0.182-0.072-0.365-0.14-0.551-0.202   c-0.369-0.122-1.198-0.729-1.865-1.217c-1.003-0.733-2.251-1.646-3.771-2.405c-0.295-0.147-0.597-0.28-0.905-0.398   c-4.368-1.667-8.732-3.069-12.953-4.427c-1.333-0.428-2.664-0.855-3.992-1.291l-2.209-0.726c-4.821-1.587-9.807-3.228-14.9-4.611   c-1.922-0.521-3.835-1.095-5.86-1.702c-3.673-1.103-7.472-2.242-11.472-3.095c-5.741-1.222-11.485-2.097-17.041-2.943l-0.718-0.109   c-4.522-0.69-8.976-1.045-13.282-1.389c-1.556-0.124-3.113-0.248-4.663-0.388c-5.608-0.509-11.5-0.84-18.013-1.012   c-1.887-0.051-3.789-0.151-5.803-0.258c-3.943-0.209-8.022-0.427-12.27-0.261c-4.134,0.158-8.075,0.705-11.887,1.233   c-2.112,0.292-4.107,0.569-6.086,0.775c-6.343,0.66-12.193,1.453-17.883,2.425c-1.815,0.31-3.644,0.58-5.477,0.853   c-3.961,0.588-8.056,1.196-12.261,2.189c-7.084,1.598-13.092,6.104-16.49,12.372c-3.325,6.134-3.848,13.371-1.441,19.873   c3.084,8.655,9.486,14.169,18.521,15.949c6.329,1.248,12.652,0.282,19.113-0.909c2.233-0.411,4.423-0.865,6.541-1.304   c3.063-0.635,5.957-1.234,8.347-1.576c2.938-0.404,6.082-0.495,9.41-0.591c2.308-0.066,4.693-0.135,7.134-0.313   c2.136-0.156,4.235-0.366,6.265-0.568c3.581-0.357,6.963-0.695,10.217-0.718c3.398-0.021,6.905,0.268,10.615,0.577   c1.955,0.162,3.908,0.324,5.862,0.444c1.882,0.115,3.765,0.194,5.647,0.273c3.794,0.159,7.378,0.309,10.803,0.762   c4.79,0.635,9.942,1.537,16.214,2.84l2.64,0.545c4.695,0.964,9.129,1.874,13.398,3.106c4.291,1.238,8.54,2.851,13.038,4.559   l2.434,0.921c5.128,1.931,10.199,4.079,15.075,6.388c3.441,1.627,6.824,3.641,10.405,5.773c1.269,0.755,2.539,1.511,3.82,2.256   c1.957,1.136,3.893,2.157,5.765,3.145c3.015,1.59,5.86,3.091,8.351,4.84c1.684,1.183,3.691,1.817,5.749,1.817   c0.311,0.027,1.417,0.551,2.148,0.896c2.372,1.122,5.956,2.817,10.702,2.817c1.792,0,3.528-0.48,5.04-1.362   c3.527-0.909,6.594-2.79,8.899-5.512c2.998-3.54,4.572-8.277,4.604-13.669c4.163-5.76,4.552-13.115,0.553-19.113   C138.898,362.324,138.686,362.039,138.457,361.766z M118.376,379.724c0.128,0.769,0.166,1.413,0.159,1.921   c-0.031,0.005-0.063,0.009-0.094,0.014c-0.208-0.097-0.411-0.192-0.592-0.277c-1.75-0.828-4.162-1.969-7.214-2.51   c-2.779-1.767-5.553-3.229-8.255-4.654c-1.773-0.936-3.448-1.819-5.052-2.75c-1.217-0.707-2.426-1.427-3.634-2.146   c-3.826-2.277-7.782-4.633-12.082-6.667c-5.365-2.539-10.944-4.903-16.58-7.025l-2.384-0.902   c-4.678-1.775-9.514-3.611-14.591-5.076c-5.022-1.45-10.056-2.483-14.923-3.482l-2.59-0.534c-6.764-1.405-12.375-2.386-17.66-3.085   c-4.315-0.571-8.523-0.748-12.591-0.918c-1.754-0.073-3.509-0.146-5.262-0.254c-1.807-0.11-3.615-0.262-5.425-0.413   c-3.989-0.332-8.121-0.676-12.415-0.646c-4.179,0.029-8.188,0.43-12.064,0.816c-1.987,0.198-3.864,0.386-5.736,0.522   c-2,0.146-4.065,0.206-6.251,0.269c-3.714,0.107-7.555,0.218-11.613,0.777c-3.058,0.437-6.249,1.098-9.626,1.798   c-2.012,0.417-4.093,0.848-6.108,1.22c-4.306,0.792-8.75,1.521-11.622,0.954c-2.161-0.426-2.826-1-3.557-3.07   c-0.022-0.061-0.044-0.122-0.067-0.183c-0.565-1.508-0.078-2.787,0.263-3.416c0.381-0.704,1.32-1.95,3.321-2.396   c0.046-0.01,0.092-0.021,0.137-0.031c3.396-0.806,6.918-1.328,10.647-1.882c1.976-0.294,3.946-0.587,5.903-0.921   c5.258-0.897,10.684-1.633,16.592-2.247c2.318-0.242,4.576-0.555,6.76-0.857c3.48-0.482,6.767-0.938,9.909-1.06   c3.338-0.125,6.789,0.055,10.443,0.248c2.055,0.109,4.179,0.222,6.331,0.278c6.083,0.162,11.558,0.469,16.743,0.938   c1.623,0.146,3.248,0.275,4.873,0.405c4.136,0.33,8.042,0.642,11.855,1.224l0.722,0.11c5.513,0.84,10.72,1.633,15.886,2.732   c3.201,0.683,6.451,1.657,9.892,2.689c2.063,0.618,4.193,1.258,6.367,1.848c4.582,1.245,9.103,2.732,13.889,4.308l2.232,0.733   c1.364,0.447,2.732,0.887,4.101,1.326c3.881,1.247,7.561,2.43,11.182,3.784c0.224,0.156,0.523,0.375,0.764,0.551   c1.547,1.131,3.859,2.821,7.023,3.936c2.813,1.119,5.632,2.147,8.36,3.142c2.088,0.761,4.169,1.52,6.222,2.312l0.844,0.325   c4.4,1.696,8.557,3.298,12.056,5.326c2.464,1.429,4.652,3.061,6.618,4.942C118.695,373.967,117.898,376.855,118.376,379.724z"/><path d="M196.421,222.896c-0.345-0.23-0.704-0.438-1.075-0.624c-2.346-1.173-4.384-2.596-6.743-4.245   c-2.593-1.811-5.528-3.861-9.125-5.672c-1.925-1.029-3.876-2.128-5.765-3.193c-2.774-1.563-5.644-3.181-8.596-4.67   c-3.383-1.707-6.745-3.179-9.996-4.603c-1.722-0.754-3.439-1.505-5.14-2.285c-1.248-0.572-2.49-1.153-3.733-1.734   c-3.699-1.729-7.523-3.516-11.545-5.125c-0.142-0.057-0.284-0.11-0.429-0.16c-1.748-0.609-3.483-1.229-5.212-1.846   c-3.905-1.395-7.944-2.837-12.026-4.108c-5.877-1.831-11.638-3.608-17.492-5.216c-4.104-1.127-8.231-2.075-12.223-2.991   c-1.834-0.421-3.672-0.843-5.51-1.283c-5.751-1.377-11.453-2.58-17.777-3.897c-0.671-0.14-1.354-0.21-2.04-0.21   c-1.69,0-2.969,0.177-3.901,0.307c-0.209,0.029-0.374,0.052-0.512,0.069c-1.797-0.341-3.621-0.748-5.534-1.174   c-3.285-0.733-6.684-1.49-10.25-1.974c-3.732-0.505-7.355-0.74-10.859-0.967c-2.18-0.141-4.238-0.274-6.267-0.467l-3.409-0.331   c-4.458-0.436-9.068-0.887-13.703-1.137c-4.408-0.239-8.762-0.272-12.972-0.306c-1.402-0.011-2.804-0.021-4.204-0.04   c-6.337-0.085-12.501,0.048-17.165,0.173l-3.085,0.079c-4.571,0.113-9.296,0.23-14.06,0.542c-4.015,0.265-7.975,0.711-11.805,1.144   c-1.714,0.193-3.431,0.387-5.153,0.564c-5.875,0.49-12.118,1.074-18.254,2.293c-0.806,0.161-1.613,0.317-2.419,0.474   c-4.9,0.951-9.959,1.933-15.165,3.747c-0.724,0.134-1.446,0.253-2.163,0.373c-4.494,0.749-10.086,1.68-15.193,5.51   c-0.378,0.284-0.736,0.594-1.071,0.929c-4.375,4.376-7.932,10.292-10.013,16.66c-2.573,7.878-1.987,15.546,1.695,22.174   c0.183,0.33,0.385,0.649,0.604,0.957c6.379,8.931,15.328,14.173,26.599,15.582c0.411,0.051,0.826,0.077,1.24,0.077   c5.831,0,12.702-1.243,20.446-3.697c0.112,0.001,0.224,0.002,0.336,0.004c0.791,0.009,1.582,0.018,2.11,0.018   c1.552,0,3.083-0.361,4.472-1.056c0.515-0.258,1.125-0.405,1.675-0.405c0.566,0,1.131-0.048,1.689-0.144   c1.541-0.264,3.074-0.541,4.6-0.815c4.072-0.734,7.919-1.427,11.678-1.845c5.94-0.661,11.313-1.107,16.425-1.366l2.506-0.13   c4.856-0.254,9.454-0.496,13.996-0.461c5.856,0.043,11.655,0.351,16.556,0.646c2.738,0.165,5.635,0.628,8.703,1.119   c2.5,0.4,5.086,0.814,7.79,1.099c2.485,0.263,4.947,0.431,7.329,0.593c3.228,0.22,6.279,0.429,9.254,0.85   c3.416,0.543,6.824,1.321,10.431,2.145c2.398,0.548,4.879,1.114,7.391,1.612c2.453,0.487,4.887,0.906,7.24,1.312   c3.746,0.646,7.285,1.255,10.687,2.086c6.234,1.522,12.376,3.289,17.562,4.816c1.533,0.452,3.07,0.894,4.607,1.336   c4.464,1.284,8.68,2.496,12.801,3.938c4.096,1.433,8.132,3.115,12.405,4.895c1.488,0.62,2.978,1.241,4.473,1.851   c5.424,2.217,10.864,4.602,16.178,7.092l0.013,0.008c4.615,2.768,9.847,5.906,14.172,9.366c0.55,0.44,1.145,0.821,1.775,1.136   c1.599,0.8,3.105,1.262,4.206,1.599c0.098,0.03,0.194,0.059,0.289,0.087c0.542,0.351,1.117,0.649,1.72,0.89   c4.717,1.887,10.364,3.98,16.492,5.206c0.656,0.131,1.313,0.195,1.964,0.195c2.973,0,5.803-1.33,7.7-3.623   c3.488-1.119,6.871-2.805,10.029-5.028c7.892-5.553,12.974-13.396,14.31-22.085c0.006-0.035,0.011-0.07,0.016-0.106   C212.417,239.531,207.238,230.107,196.421,222.896z M185.168,255.266c-1.967,1.384-5.962,3.598-10.649,2.875   c-0.513-0.079-1.022-0.117-1.527-0.117c-0.178,0-0.354,0.005-0.53,0.014c-1.164-0.417-2.31-0.854-3.432-1.296   c-1.706-1.056-3.418-1.581-4.682-1.969c-0.163-0.05-0.361-0.11-0.548-0.169c-5.039-3.877-10.405-7.097-15.182-9.962l-0.447-0.268   c-0.287-0.172-0.584-0.331-0.888-0.474c-5.768-2.713-11.682-5.311-17.578-7.72c-1.452-0.593-2.899-1.196-4.347-1.799   c-4.349-1.812-8.847-3.686-13.491-5.311c-4.655-1.629-9.344-2.977-13.878-4.281c-1.495-0.43-2.991-0.86-4.483-1.3   c-5.409-1.594-11.833-3.441-18.47-5.061c-4.07-0.994-8.119-1.692-12.035-2.367c-2.334-0.402-4.539-0.782-6.743-1.219   c-2.23-0.443-4.465-0.953-6.831-1.493c-3.799-0.868-7.727-1.765-11.839-2.414c-0.049-0.008-0.097-0.015-0.146-0.022   c-3.729-0.533-7.319-0.778-10.792-1.015c-2.299-0.157-4.472-0.305-6.588-0.529c-2.173-0.229-4.388-0.583-6.731-0.959   c-3.411-0.545-6.938-1.11-10.662-1.334c-5.161-0.311-11.289-0.634-17.609-0.681c-5.151-0.036-10.254,0.229-15.189,0.487   l-2.472,0.128c-5.518,0.279-11.283,0.758-17.624,1.463c-4.43,0.492-8.794,1.279-13.015,2.039c-1.235,0.223-2.475,0.446-3.72,0.663   c-2.429,0.103-4.851,0.586-7.147,1.423c-0.759-0.009-1.507-0.017-2.015-0.017c-1.075,0-2.143,0.173-3.162,0.513   c-5.96,1.987-11.17,3.084-15.125,3.188c-5.173-0.768-8.856-2.879-11.804-6.766c-0.565-1.206-0.893-2.882,0.062-5.805   c1.003-3.068,2.638-5.971,4.547-8.098c1.31-0.701,3.507-1.067,6.004-1.483c1.151-0.192,2.313-0.387,3.474-0.62   c0.496-0.099,0.982-0.235,1.457-0.408c4.001-1.455,8.334-2.296,12.921-3.187c0.836-0.162,1.672-0.325,2.508-0.491   c5.148-1.024,10.559-1.524,16.111-1.987c0.063-0.005,0.126-0.011,0.189-0.018c1.821-0.187,3.636-0.391,5.449-0.596   c3.768-0.425,7.327-0.827,10.874-1.061c4.354-0.286,8.671-0.393,13.242-0.505l3.127-0.08c4.476-0.121,10.381-0.249,16.363-0.168   c1.438,0.019,2.875,0.03,4.313,0.042c4.166,0.033,8.101,0.063,12.049,0.277c4.202,0.227,8.396,0.637,12.835,1.071   c1.154,0.113,2.309,0.226,3.466,0.335c2.327,0.221,4.633,0.371,6.863,0.515c3.306,0.214,6.428,0.416,9.467,0.828   c2.728,0.369,5.572,1.003,8.584,1.675c2.418,0.539,4.919,1.097,7.521,1.552c0.569,0.099,1.146,0.149,1.724,0.149   c1.69,0,2.969-0.177,3.901-0.307c0.161-0.022,0.296-0.041,0.413-0.056c5.65,1.18,10.803,2.276,15.899,3.497   c1.899,0.455,3.797,0.891,5.691,1.326c3.963,0.91,7.707,1.77,11.402,2.784c5.551,1.524,11.133,3.247,16.84,5.025   c3.691,1.149,7.362,2.46,11.248,3.848c1.706,0.609,3.418,1.221,5.143,1.822c3.425,1.379,6.768,2.941,10.303,4.593   c1.284,0.6,2.569,1.2,3.86,1.792c1.807,0.829,3.63,1.627,5.457,2.428c3.145,1.377,6.114,2.677,9.01,4.138   c2.541,1.282,5.088,2.718,7.785,4.238c2.023,1.14,4.115,2.319,6.281,3.474c0.076,0.041,0.154,0.081,0.232,0.12   c2.346,1.173,4.384,2.596,6.743,4.245c2.472,1.726,5.254,3.669,8.623,5.416c3.475,2.413,5.635,5.074,5.436,6.727   C190.507,250.93,187.127,253.887,185.168,255.266z"/><path d="M265.941,260.676c-0.082-1.005-0.159-2.01-0.236-3.016c-0.385-4.997-0.782-10.164-1.686-15.39   c-1.103-6.38-2.738-12.557-4.182-18.006c-1.501-5.666-3.146-11.698-5.285-17.68c-1.731-4.841-3.827-9.41-5.854-13.828   c-0.473-1.03-0.945-2.06-1.412-3.093c-2.673-5.903-5.123-11.222-8.039-16.52l-1.229-2.24c-2.459-4.492-5.002-9.137-7.955-13.661   c-2.511-3.848-5.273-7.373-7.944-10.782c-1.016-1.297-2.033-2.594-3.029-3.903c-3.496-4.595-7.291-9.217-11.603-14.128   c-0.048-0.054-0.096-0.108-0.145-0.161c-0.874-0.954-1.738-1.913-2.6-2.87c-2.814-3.125-5.725-6.357-8.98-9.396   c-3.836-3.581-7.838-6.892-11.708-10.094l-0.944-0.782c-1.112-0.921-2.223-1.853-3.336-2.787c-3.001-2.517-6.104-5.12-9.385-7.645   c-0.033-0.025-0.065-0.05-0.099-0.075c-2.727-2.045-5.357-3.229-7.472-4.181c-1.045-0.471-2.478-1.115-2.801-1.439   c-0.498-0.498-1.047-0.941-1.639-1.324c-1.185-0.767-2.361-1.542-3.534-2.314c-4.319-2.844-8.786-5.785-13.597-8.294   c-4.635-2.417-9.283-4.194-13.778-5.913c-1.624-0.621-3.243-1.24-4.842-1.884c-5.504-2.221-12.063-4.764-18.988-6.79l-2.146-0.63   c-5.583-1.645-11.356-3.345-17.387-4.483c-5.854-1.105-11.648-1.618-17.252-2.114l-2.773-0.248   c-6.628-0.607-13.382-0.915-20.075-0.915c-0.194,0-0.388,0.006-0.581,0.017c-0.238,0.014-0.475,0.036-0.709,0.067   c-1.122-0.081-2.263-0.174-3.444-0.271c-4.205-0.345-8.554-0.702-13.117-0.543c-4.359,0.153-8.431,0.815-12.369,1.456   c-2.037,0.332-3.961,0.645-5.847,0.874c-1.445,0.176-2.892,0.336-4.339,0.497c-4.459,0.495-9.07,1.006-13.768,1.966   c-5.85,1.197-11.809,2.653-17.712,4.329c-1.012,0.288-2.027,0.572-3.042,0.856c-4.694,1.314-9.549,2.674-14.374,4.417   c-4.729,1.708-9.247,3.708-13.616,5.641c-1.042,0.461-2.084,0.922-3.126,1.378c-6.315,2.763-11.467,5.246-16.21,7.814   c-4.065,2.201-7.725,4.68-11.264,7.079c-1.294,0.876-2.585,1.752-3.889,2.606c-1.376,0.902-2.769,1.778-4.161,2.655   c-3.547,2.235-7.215,4.545-10.776,7.315c-3.408,2.65-6.417,5.512-9.326,8.28c-1.364,1.297-2.653,2.523-3.966,3.714   c-1.441,1.307-2.982,2.591-4.615,3.95c-2.896,2.411-5.89,4.905-8.752,7.881c-4.715,4.903-8.523,9.079-11.982,13.14   c-0.033,0.039-0.065,0.077-0.097,0.116c-3.97,4.806-7.438,9.795-10.795,14.626c-3.317,4.772-6.491,9.797-9.702,15.363   c-2.657,4.604-4.835,9.28-6.942,13.802l-1.147,2.455c-0.672,1.431-1.367,2.852-2.062,4.273c-1.902,3.893-3.869,7.917-5.479,12.262   c-2.184,5.888-4.08,11.703-5.635,17.283c-1.176,4.217-1.848,8.343-2.498,12.334c-0.311,1.911-0.605,3.715-0.945,5.487   c-0.328,1.7-0.692,3.396-1.056,5.093c-0.872,4.067-1.774,8.272-2.266,12.729c-0.625,5.678-1.028,11.592-1.231,18.078   c-0.153,4.871,0.096,9.631,0.337,14.234c0.067,1.283,0.135,2.566,0.193,3.851c0.271,5.969,0.923,11.669,1.689,18.01   c0.22,1.76,0.414,3.521,0.608,5.278c0.524,4.747,1.065,9.656,2.096,14.614c1.229,5.915,2.713,12.796,4.762,19.602   c1.911,6.345,4.291,12.349,6.978,18.977c2.229,5.498,4.958,11.989,8.31,18.44c2.94,5.663,6.272,11.376,10.204,17.491   c3.836,5.927,7.976,11.384,11.628,16.198c3.65,4.813,7.934,10.381,12.575,15.563c3.572,3.988,7.368,7.489,11.039,10.874   c1.115,1.028,2.228,2.055,3.327,3.089c1.381,1.3,2.735,2.631,4.09,3.961c3.303,3.243,6.718,6.597,10.615,9.679   c4.371,3.456,8.954,6.468,13.387,9.381c1.025,0.673,2.051,1.348,3.074,2.026c4.964,3.298,10.547,6.673,17.068,10.317   c0.046,0.025,0.092,0.051,0.138,0.075c5.512,2.968,11.083,5.432,16.469,7.814l0.956,0.423c6.728,2.977,12.419,5.258,17.999,7.209   c5.9,2.063,12.001,4.195,18.327,5.838l0.25,0.065c6.001,1.559,12.207,3.17,18.614,4.277c5.482,0.948,10.925,1.415,16.188,1.867   c1.013,0.088,2.026,0.175,3.041,0.265l2.554,0.232c5.397,0.493,10.978,1.004,16.727,1.056c0.683,0.006,1.368,0.009,2.057,0.009   c5.601,0,11.393-0.201,17.249-0.601c0.323-0.021,0.645-0.06,0.964-0.112c2.792-0.466,5.35-0.781,8.057-1.116   c2.795-0.345,5.685-0.702,8.893-1.236c0.263-0.044,0.522-0.098,0.78-0.162c3.038-0.759,6.188-1.282,9.522-1.835   c2.576-0.427,5.239-0.869,7.923-1.438c6.996-1.483,13.304-3.524,19.278-6.241c4.989-2.267,10.083-4.466,15.01-6.594l3.845-1.655   c4.823-2.068,9.811-4.206,14.863-6.964c0.119-0.064,0.237-0.133,0.354-0.202c5.251-3.15,9.778-6.088,14.249-9.243   c1.296-0.915,2.576-1.853,3.869-2.8c2.927-2.146,5.69-4.171,8.827-6.053c0.701-0.421,1.349-0.926,1.927-1.504   c1.038-1.039,1.714-1.989,2.163-2.671c1.408-1.024,2.735-1.932,4.125-2.881c1.841-1.257,3.745-2.558,5.922-4.19   c0.379-0.284,0.736-0.595,1.071-0.929c1.775-1.776,3.316-3.577,4.806-5.319c1.297-1.518,2.522-2.951,3.747-4.175   c0.733-0.734,1.23-1.302,1.63-1.757c0.041-0.048,0.082-0.095,0.124-0.143c4.081-2.827,6.506-6.377,8.491-9.282   c0.798-1.167,1.511-2.211,2.221-3.051c0.944-0.477,2.309-1.276,3.661-2.628c0.466-0.466,0.884-0.977,1.249-1.524   c0.635-0.952,1.262-1.884,1.879-2.801c3.22-4.784,6.271-9.317,8.965-14.537c0.754-0.922,1.635-1.841,2.558-2.805   c2.175-2.269,4.632-4.834,6.488-8.432c2.125-3.739,3.977-7.495,5.768-11.129c0.827-1.678,1.652-3.353,2.498-5.009l0.731-1.431   c2.516-4.919,5.117-10.006,7.378-15.322c2.192-5.162,4.704-11.203,6.753-17.582c1.987-6.188,3.358-12.493,4.594-18.42   c0.14-0.67,0.21-1.354,0.21-2.039c0-2.577,0.318-4.583,1.099-6.923c0.285-0.857,0.453-1.749,0.5-2.649   c0.03-0.191,0.072-0.396,0.111-0.603c0.139-0.732,0.3-1.59,0.386-2.527c0.966-5.102,1.461-10.075,1.94-14.892   c0.093-0.934,0.186-1.865,0.282-2.793c0.704-6.807,1.186-12.551,1.249-18.461C266.731,273.53,266.493,267.483,265.941,260.676z    M246.673,278.948c-0.056,5.144-0.498,10.363-1.146,16.62c-0.099,0.954-0.193,1.91-0.289,2.867   c-0.475,4.77-0.924,9.274-1.791,13.672c-0.092,0.47-0.151,0.945-0.176,1.423c-0.03,0.19-0.072,0.396-0.111,0.602   c-0.102,0.538-0.216,1.144-0.303,1.798c-1.092,3.603-1.653,7.146-1.741,10.988c-1.074,5.122-2.268,10.481-3.859,15.438   c-1.791,5.579-4.097,11.121-6.117,15.874c-1.982,4.663-4.312,9.217-6.777,14.038l-0.738,1.443   c-0.888,1.741-1.755,3.499-2.623,5.261c-1.771,3.592-3.443,6.984-5.316,10.265c-0.092,0.16-0.179,0.322-0.262,0.488   c-0.518,1.035-1.752,2.323-3.18,3.813c-1.418,1.479-3.023,3.155-4.594,5.249c-0.36,0.479-0.676,0.991-0.944,1.528   c-2.229,4.458-4.967,8.525-8.136,13.234c-0.223,0.33-0.445,0.662-0.67,0.996c-0.876,0.492-1.967,1.22-3.049,2.302   c-2.243,2.243-3.821,4.553-5.213,6.591c-1.518,2.222-2.503,3.616-3.591,4.269c-0.701,0.421-1.349,0.926-1.927,1.504   c-0.733,0.734-1.23,1.302-1.63,1.757c-0.21,0.24-0.417,0.482-0.727,0.792c-1.775,1.776-3.315,3.577-4.806,5.319   c-1.129,1.32-2.203,2.577-3.27,3.688c-1.591,1.173-3.062,2.178-4.609,3.235c-1.841,1.257-3.745,2.558-5.922,4.19   c-0.379,0.284-0.736,0.595-1.071,0.929c-0.891,0.891-1.515,1.717-1.958,2.364c-3.18,2.011-5.944,4.037-8.632,6.007   c-1.196,0.877-2.381,1.745-3.58,2.592c-4.007,2.828-8.087,5.477-12.826,8.325c-4.167,2.261-8.452,4.098-12.986,6.041l-3.895,1.677   c-5.011,2.164-10.192,4.402-15.354,6.747c-4.638,2.108-9.594,3.706-15.152,4.885c-2.248,0.477-4.579,0.863-7.047,1.272   c-3.45,0.572-7.015,1.164-10.688,2.061c-2.648,0.433-5.099,0.734-7.686,1.055c-2.65,0.327-5.387,0.665-8.398,1.155   c-5.906,0.392-11.728,0.568-17.298,0.514c-4.926-0.044-9.86-0.495-15.084-0.973l-2.597-0.235c-1.036-0.093-2.071-0.182-3.107-0.271   c-5.067-0.436-9.854-0.847-14.493-1.648c-5.589-0.967-11.128-2.405-16.993-3.929l-0.25-0.064   c-5.53-1.436-10.981-3.342-16.841-5.391c-4.974-1.739-10.191-3.833-16.417-6.588l-0.96-0.424   c-5.248-2.321-10.206-4.515-15.016-7.101c-6.038-3.376-11.168-6.476-15.683-9.476c-1.051-0.698-2.105-1.391-3.158-2.082   c-4.259-2.799-8.282-5.442-11.963-8.354c-3.056-2.417-5.947-5.256-9.009-8.262c-1.455-1.429-2.91-2.856-4.396-4.255   c-1.149-1.081-2.312-2.153-3.475-3.227c-3.479-3.208-6.764-6.238-9.699-9.516c-4.139-4.621-8.127-9.808-11.54-14.307   c-3.441-4.536-7.341-9.677-10.755-14.952c-3.578-5.565-6.607-10.755-9.261-15.867c-2.97-5.717-5.47-11.668-7.523-16.735   c-2.497-6.159-4.699-11.707-6.363-17.23c-1.816-6.032-3.188-12.405-4.331-17.904c-0.837-4.027-1.304-8.259-1.798-12.739   c-0.205-1.853-0.41-3.709-0.637-5.523c-0.712-5.894-1.321-11.201-1.56-16.477c-0.06-1.33-0.13-2.661-0.2-3.991   c-0.23-4.384-0.447-8.525-0.32-12.56c0.186-5.959,0.553-11.361,1.12-16.512c0.381-3.448,1.139-6.985,1.942-10.729   c0.393-1.833,0.786-3.667,1.14-5.506c0.396-2.055,0.727-4.087,1.046-6.053c0.588-3.612,1.144-7.024,2.022-10.175   c1.408-5.049,3.131-10.332,5.122-15.702c1.265-3.411,2.932-6.823,4.697-10.435c0.739-1.512,1.478-3.024,2.194-4.548l1.174-2.514   c2.014-4.323,3.916-8.405,6.136-12.252c2.929-5.076,5.808-9.637,8.807-13.951c3.106-4.469,6.317-9.089,9.74-13.239   c3.18-3.73,6.716-7.605,11.125-12.189c2.095-2.178,4.542-4.216,7.133-6.374c1.72-1.432,3.498-2.913,5.252-4.503   c1.491-1.352,2.927-2.718,4.315-4.04c2.673-2.542,5.197-4.944,7.819-6.983c2.78-2.162,5.879-4.114,9.159-6.18   c1.492-0.94,2.985-1.881,4.46-2.847c1.391-0.911,2.769-1.845,4.149-2.779c3.278-2.222,6.375-4.32,9.567-6.047   c4.241-2.296,8.914-4.546,14.705-7.079c1.068-0.467,2.136-0.94,3.205-1.413c4.241-1.877,8.247-3.649,12.316-5.12   c4.133-1.492,8.427-2.695,12.974-3.968c1.039-0.291,2.076-0.582,3.111-0.875c5.424-1.54,10.894-2.876,16.256-3.973   c3.803-0.777,7.768-1.217,11.966-1.683c1.519-0.168,3.037-0.337,4.554-0.521c2.283-0.278,4.497-0.639,6.638-0.987   c3.478-0.565,6.762-1.1,9.857-1.208c3.396-0.118,6.983,0.176,10.782,0.487c1.873,0.154,3.81,0.313,5.776,0.425   c0.831,0.045,1.654-0.009,2.452-0.162c5.476,0.051,10.981,0.327,16.395,0.823l2.833,0.253c5.356,0.474,10.417,0.922,15.304,1.845   c5.049,0.953,10.1,2.44,15.447,4.016l2.18,0.641c6.088,1.781,12.071,4.104,17.122,6.143c1.712,0.69,3.443,1.353,5.181,2.017   c4.147,1.586,8.064,3.084,11.675,4.966c3.908,2.038,7.763,4.577,11.845,7.265c0.971,0.639,1.943,1.28,2.922,1.917   c2.668,2.365,5.511,3.645,7.841,4.694c1.442,0.65,2.691,1.212,3.642,1.915c2.928,2.255,5.847,4.704,8.67,7.072   c1.146,0.961,2.287,1.919,3.433,2.867l0.951,0.788c3.812,3.154,7.412,6.133,10.812,9.306c2.621,2.447,5.12,5.222,7.766,8.16   c0.876,0.973,1.755,1.948,2.644,2.918c3.972,4.528,7.455,8.771,10.649,12.968c1.054,1.385,2.128,2.756,3.201,4.126   c2.521,3.216,4.9,6.253,6.939,9.377c2.529,3.876,4.779,7.985,7.161,12.335l1.25,2.28c2.568,4.665,4.844,9.608,7.34,15.121   c0.48,1.063,0.967,2.123,1.453,3.184c1.935,4.218,3.762,8.201,5.202,12.228c1.876,5.245,3.392,10.811,4.782,16.063   c1.339,5.052,2.855,10.777,3.808,16.291c0.742,4.295,1.087,8.775,1.452,13.519c0.079,1.033,0.159,2.065,0.242,3.098   C246.509,268.484,246.727,273.932,246.673,278.948z"/><path d="M176.247,313.654c-1.562-6.245-5.19-11.435-11.096-15.863c-0.056-0.042-0.111-0.083-0.168-0.123   c-3.378-2.426-6.794-4.503-10.098-6.512c-1.734-1.055-3.373-2.052-4.973-3.076l-1.175-0.753c-4.526-2.903-9.206-5.905-14.045-8.63   c-4.71-2.653-9.471-4.962-14.076-7.196l-1.893-0.919c-4.929-2.398-10.285-4.782-16.375-7.288c-5.09-2.095-10.859-4.469-16.73-6.463   c-4.785-1.625-9.602-2.916-14.258-4.165l-4.095-1.105c-5.226-1.419-10.629-2.888-16.236-4.053c-1.867-0.388-3.743-0.828-5.73-1.294   c-3.734-0.876-7.595-1.782-11.686-2.396c-1.629-0.274-3.312-0.624-5.091-0.994c-4.23-0.88-9.006-1.874-13.996-1.939   c-5.667-0.54-11.301-0.603-16.754-0.663c-1.31-0.014-2.622-0.029-3.935-0.05c-7.38-0.119-14.667,0.07-20.822,0.27   c-2.917,0.095-5.824,0.096-8.898,0.088c-3.71-0.005-7.534-0.009-11.377,0.176c-6.869,0.022-13.828,0.958-21.55,2.084   c-7.6,1.109-14.142,2.882-19.896,5.397c-8.117-0.281-15.542,3.361-21.23,10.471c-0.181,0.226-0.352,0.459-0.512,0.7   c-7.132,10.698-7.321,21.826-0.53,31.333c0.045,0.063,0.091,0.125,0.137,0.188c7.841,10.454,20.216,14.7,33.954,11.647   c0.106-0.023,0.212-0.049,0.317-0.076c5.689-1.461,11.573-2.971,17.248-3.967c5.224-0.915,10.967-1.666,17.557-2.295   c3.406-0.324,6.992-0.262,10.788-0.195c2.237,0.039,4.551,0.083,6.904,0.039c1.985-0.034,3.968-0.106,5.95-0.179   c4.114-0.151,8-0.295,11.741-0.075c3.808,0.225,7.689,0.812,11.798,1.433c1.925,0.291,3.85,0.581,5.778,0.838   c1.893,0.251,3.791,0.474,5.689,0.694c4.17,0.487,8.108,0.946,11.898,1.723c5.017,1.029,10.51,2.377,17.287,4.242   c1.129,0.311,2.26,0.617,3.393,0.925c4.796,1.301,9.326,2.529,13.749,4.047c4.153,1.426,8.26,3.135,12.606,4.944   c1.339,0.557,2.678,1.114,4.02,1.663c5.477,2.243,10.99,4.678,16.391,7.24c3.326,1.576,6.604,3.419,10.074,5.37   c1.896,1.065,3.794,2.132,5.716,3.166c2.477,1.331,4.954,2.505,7.349,3.641c3.11,1.474,6.047,2.866,8.712,4.466   c0.22,0.132,0.444,0.255,0.674,0.369l1.095,0.553c4.317,2.188,10.231,5.185,17.152,5.185c0.14,0,0.278-0.003,0.417-0.009   c0.839,0.101,1.672,0.151,2.499,0.151c4.308,0,8.472-1.368,12.61-4.128c0.24-0.16,0.475-0.331,0.7-0.512   c9.604-7.684,14.547-17.82,13.219-27.114C176.396,314.325,176.331,313.988,176.247,313.654z M151.072,325.886   c-0.976,0.619-1.171,0.57-1.653,0.451c-0.266-0.066-0.534-0.122-0.805-0.167c-0.539-0.088-1.079-0.132-1.616-0.132   c-0.434,0-0.865,0.028-1.291,0.084c-2.017-0.437-4.542-1.716-6.819-2.869l-0.845-0.427c-3.396-2.012-6.807-3.629-10.108-5.193   c-2.271-1.076-4.415-2.093-6.445-3.185c-1.81-0.973-3.599-1.979-5.386-2.983c-3.615-2.033-7.354-4.135-11.305-6.008   c-5.725-2.715-11.572-5.298-17.382-7.677c-1.307-0.535-2.61-1.078-3.914-1.62c-4.445-1.851-9.042-3.764-13.799-5.396   c-5.046-1.73-10.109-3.104-15.006-4.433c-1.109-0.301-2.217-0.602-3.321-0.905c-7.213-1.985-13.115-3.431-18.578-4.551   c-4.634-0.95-9.19-1.481-13.596-1.995c-1.792-0.209-3.584-0.417-5.371-0.655c-1.81-0.241-3.618-0.515-5.425-0.788   c-4.372-0.661-8.893-1.344-13.613-1.623c-4.698-0.276-9.249-0.108-13.649,0.054c-1.853,0.068-3.707,0.137-5.56,0.169   c-2.005,0.033-4.047-0.002-6.209-0.04c-4.183-0.073-8.509-0.149-13.04,0.283c-7.115,0.68-13.364,1.499-19.11,2.504   c-6.383,1.121-12.591,2.709-18.597,4.252c-8.737,1.88-12.203-2.472-13.4-4.064c-0.97-1.363-2.293-3.421,0.719-8.143   c2.583-3.05,4.523-2.726,5.473-2.569c2.083,0.348,4.227,0.025,6.117-0.92c4.456-2.229,9.866-3.785,16.541-4.76   c5.724-0.835,12.848-1.875,18.912-1.875c0.167,0,0.333-0.004,0.499-0.013c3.417-0.17,6.908-0.165,10.605-0.163   c3.104,0.006,6.318,0.007,9.572-0.099c5.914-0.192,12.897-0.373,19.848-0.262c1.347,0.022,2.692,0.037,4.036,0.052   c5.407,0.06,10.514,0.116,15.457,0.611c0.331,0.033,0.663,0.05,0.996,0.05c3.121,0,6.679,0.74,10.446,1.523   c1.92,0.399,3.905,0.813,5.952,1.153c0.057,0.01,0.113,0.019,0.17,0.027c3.31,0.493,6.637,1.274,10.161,2.101   c2.021,0.475,4.113,0.965,6.23,1.405c5.015,1.042,9.894,2.368,15.06,3.771l4.158,1.122c4.547,1.22,8.842,2.372,13.008,3.786   c5.273,1.791,10.497,3.941,15.55,6.02c5.702,2.346,10.686,4.563,15.236,6.777l1.916,0.93c4.531,2.198,8.813,4.274,12.987,6.626   c4.34,2.444,8.576,5.162,13.062,8.039l1.185,0.76c1.799,1.151,3.614,2.256,5.37,3.324c3.086,1.876,6.003,3.649,8.735,5.604   c2.221,1.682,3.048,2.981,3.432,4.047C156.564,319.685,154.542,323.006,151.072,325.886z"/></g></svg>